<?xml version="1.0" encoding="utf-8"?>
<!-- Svg Vector Icons : http://www.onlinewebfonts.com/icon -->
<!DOCTYPE svg PUBLIC "-//W3C//DTD SVG 1.1//EN" "http://www.w3.org/Graphics/SVG/1.1/DTD/svg11.dtd">
<svg version="1.1" xmlns="http://www.w3.org/2000/svg" xmlns:xlink="http://www.w3.org/1999/xlink" x="0px" y="0px" viewBox="0 0 1000 1000" enable-background="new 0 0 1000 1000" xml:space="preserve">
<metadata> Svg Vector Icons : http://www.onlinewebfonts.com/icon </metadata>
<g><path d="M873.2,45H126.7c0,5.8-116.7-23.3-116.7,93.3v583.3C10,838.3,126.7,815,126.7,815H360c0,0,142,140,140,140c-0.9-0.9,140-140,140-140h233.3c0-5.7,116.7,0,116.7-116.7V138.4C989.9,21.7,873.2,50.8,873.2,45z M943.2,698.3c0,70-70,67.6-70,70H616.6L499.9,884.9L383.3,768.3H126.7c-71.2,0-72.7-46.7-70-46.7V161.7c0-70,70-68.4,70-70h746.5c6.4,0.7,70,0.4,70,70V698.3z M779.9,255H220c-12.9,0-23.3,10.5-23.3,23.3c0,12.9,10.5,23.3,23.3,23.3h559.9c12.9,0,23.3-10.5,23.3-23.3C803.2,265.4,792.8,255,779.9,255z M779.9,418.3H220c-12.9,0-23.3,10.5-23.3,23.3c0,12.9,10.5,23.3,23.3,23.3h559.9c12.9,0,23.3-10.5,23.3-23.3C803.3,428.8,792.8,418.3,779.9,418.3z M779.9,581.6H220c-12.9,0-23.3,10.5-23.3,23.3c0,12.9,10.5,23.3,23.3,23.3h559.9c12.9,0,23.3-10.5,23.3-23.3C803.3,592.1,792.8,581.6,779.9,581.6z"/></g>
</svg>